# xmcd
#
# Track frame offsets: 
#        150
#        16917
#        34490
#        47887
#        59382
#        73087
#        85222
#        96832
#        113095
#        132442
#        144110
#        158990
#
# Disc length: 2254 seconds
#
# Revision: 1
# Processed by: cddbd v1.5.1PL0 Copyright (c) Steve Scherf et al.
# Submitted via: ExactAudioCopy v0.90b4
#
DISCID=a508cc0c
DTITLE=The Righteous Brothers - The Best Of The Righteous Brothers
DYEAR=1990
DGENRE=
TTITLE0=You've Lost That Loving Feeling
TTITLE1=That Lucky Old Sun
TTITLE2=So Many Lonely Nights Ahead
TTITLE3=Go Ahead And Cry
TTITLE4=Soul And Inspiration
TTITLE5=My Darling Clementine
TTITLE6=Hold On! I'm Coming
TTITLE7=Unchained Melody
TTITLE8=Drown In My Own Tears
TTITLE9=Island In The Sun
TTITLE10=Hung On You
TTITLE11=In The Midnight Hour
EXTD=PolyGram Records - PKD3050\nBarcode: 9 313670 305018
EXTT0=
EXTT1=
EXTT2=
EXTT3=
EXTT4=
EXTT5=
EXTT6=
EXTT7=
EXTT8=
EXTT9=
EXTT10=
EXTT11=
PLAYORDER=
